<svg xmlns="http://www.w3.org/2000/svg" xmlns:xlink="http://www.w3.org/1999/xlink" version="1.1" x="0px" y="0px" viewBox="0 0 450 562.5" style="enable-background:new 0 0 450 450;" xml:space="preserve"><g><g><path d="M365.3,373.4h-280c-19.3,0-35-15.7-35-35v-138c0-19.3,15.7-35,35-35h280c19.3,0,35,15.7,35,35v138    C400.3,357.7,384.6,373.4,365.3,373.4z M85.3,175.4c-13.8,0-25,11.2-25,25v138c0,13.8,11.2,25,25,25h280c13.8,0,25-11.2,25-25    v-138c0-13.8-11.2-25-25-25L85.3,175.4L85.3,175.4z"/></g><g><g><path d="M149.1,340.1h-24.7c-16.6,0-30.2-13.5-30.2-30.2v-81.1c0-16.6,13.5-30.2,30.2-30.2h24.7c16.6,0,30.2,13.5,30.2,30.2v20.5     c0,2.8-2.2,5-5,5s-5-2.2-5-5v-20.5c0-11.1-9-20.2-20.2-20.2h-24.7c-11.1,0-20.2,9-20.2,20.2v81.1c0,11.1,9,20.2,20.2,20.2h24.7     c11.1,0,20.2-9,20.2-20.2v-20.5c0-2.8,2.2-5,5-5s5,2.2,5,5v20.5C179.3,326.5,165.8,340.1,149.1,340.1z"/></g><g><path d="M314.9,340.1c-0.1,0-0.2,0-0.3,0c-2.8-0.1-4.9-2.5-4.7-5.3l1.3-24.5h-55.1l-1.3,25c-0.1,2.8-2.5,4.9-5.3,4.7     c-2.8-0.1-4.9-2.5-4.7-5.3l1.3-24.5H220c-2.8,0-5-2.2-5-5s2.2-5,5-5h26.6l2.9-55.1h-22.9c-2.8,0-5-2.2-5-5s2.2-5,5-5h23.4l1.3-25     c0.1-2.8,2.5-4.9,5.3-4.7c2.8,0.1,4.9,2.5,4.7,5.3l-1.3,24.5h55.1l1.3-25c0.1-2.8,2.5-4.9,5.3-4.7c2.8,0.1,4.9,2.5,4.7,5.3     l-1.3,24.5h26.1c2.8,0,5,2.2,5,5s-2.2,5-5,5h-26.6l-2.9,55.1h22.9c2.8,0,5,2.2,5,5s-2.2,5-5,5h-23.4l-1.3,25     C319.7,338,317.5,340.1,314.9,340.1z M256.7,300.3h55.1l2.9-55.1h-55.1L256.7,300.3z"/></g></g><g><g><path d="M316.8,147.4h-183c-2.8,0-5-2.2-5-5s2.2-5,5-5h183c2.8,0,5,2.2,5,5S319.5,147.4,316.8,147.4z"/></g><g><path d="M316.8,401.4h-183c-2.8,0-5-2.2-5-5s2.2-5,5-5h183c2.8,0,5,2.2,5,5S319.5,401.4,316.8,401.4z"/></g></g><g><path d="M418.1,436.2H32.4c-15.5,0-28.1-12.6-28.1-28.1V43.4c0-15.5,12.6-28.1,28.1-28.1h385.8c15.5,0,28.1,12.6,28.1,28.1v364.7    C446.3,423.6,433.6,436.2,418.1,436.2z M32.4,25.3c-10,0-18.1,8.1-18.1,18.1v364.7c0,10,8.1,18.1,18.1,18.1h385.8    c10,0,18.1-8.1,18.1-18.1V43.4c0-10-8.1-18.1-18.1-18.1H32.4z"/></g><g><path d="M441.3,112.5H9.3c-2.8,0-5-2.2-5-5s2.2-5,5-5h432c2.8,0,5,2.2,5,5S444,112.5,441.3,112.5z"/></g><g><path d="M64.9,88.5c-13.6,0-24.6-11-24.6-24.6s11-24.6,24.6-24.6s24.6,11,24.6,24.6S78.5,88.5,64.9,88.5z M64.9,49.2    c-8.1,0-14.6,6.6-14.6,14.6s6.6,14.6,14.6,14.6s14.6-6.6,14.6-14.6S72.9,49.2,64.9,49.2z"/></g><g><path d="M127.1,88.5c-13.6,0-24.6-11-24.6-24.6s11-24.6,24.6-24.6s24.6,11,24.6,24.6S140.7,88.5,127.1,88.5z M127.1,49.2    c-8.1,0-14.6,6.6-14.6,14.6s6.6,14.6,14.6,14.6s14.6-6.6,14.6-14.6S135.2,49.2,127.1,49.2z"/></g><g><path d="M189.4,88.5c-13.6,0-24.6-11-24.6-24.6s11-24.6,24.6-24.6s24.6,11,24.6,24.6S203,88.5,189.4,88.5z M189.4,49.2    c-8.1,0-14.6,6.6-14.6,14.6s6.6,14.6,14.6,14.6S204,71.9,204,63.9S197.4,49.2,189.4,49.2z"/></g><g><path d="M349.7,68.9H232c-2.8,0-5-2.2-5-5s2.2-5,5-5h117.8c2.8,0,5,2.2,5,5S352.5,68.9,349.7,68.9z"/></g><g><path d="M405.3,68.9h-32.5c-2.8,0-5-2.2-5-5s2.2-5,5-5h32.5c2.8,0,5,2.2,5,5S408,68.9,405.3,68.9z"/></g><g><path d="M389,85.1c-2.8,0-5-2.2-5-5V47.6c0-2.8,2.2-5,5-5s5,2.2,5,5v32.5C394,82.9,391.8,85.1,389,85.1z"/></g></g><text x="0" y="465" fill="#000000" font-size="5px" font-weight="bold" font-family="'Helvetica Neue', Helvetica, Arial-Unicode, Arial, Sans-serif">Created by SAM Designs</text><text x="0" y="470" fill="#000000" font-size="5px" font-weight="bold" font-family="'Helvetica Neue', Helvetica, Arial-Unicode, Arial, Sans-serif">from the Noun Project</text></svg>